<svg xmlns="http://www.w3.org/2000/svg" xmlns:xlink="http://www.w3.org/1999/xlink" width="4932" zoomAndPan="magnify" viewBox="414 222 4932 1230" height="1230" preserveAspectRatio="xMidYMid meet" version="1.0"><defs><g/><clipPath id="ee56b71be9"><path d="M 5.734375 353.5 L 839.613281 353.5 L 839.613281 1147.46875 L 5.734375 1147.46875 Z M 5.734375 353.5 " clip-rule="nonzero"/></clipPath><clipPath id="e22417c6da"><path d="M 836.21875 666.101562 C 841.863281 660.59375 838.753906 651.007812 830.945312 649.875 L 559.5 610.433594 C 556.402344 609.980469 553.722656 608.035156 552.335938 605.230469 L 430.953125 359.261719 C 427.464844 352.1875 417.375 352.1875 413.886719 359.261719 L 292.492188 605.230469 C 291.105469 608.035156 288.425781 609.980469 285.328125 610.433594 L 13.894531 649.875 C 6.09375 651.007812 2.972656 660.59375 8.617188 666.101562 L 205.035156 857.558594 C 207.273438 859.742188 208.304688 862.894531 207.769531 865.976562 L 161.402344 1136.316406 C 160.824219 1139.667969 162.019531 1142.660156 164.113281 1144.710938 C 162.703125 1146.476562 161.917969 1147.464844 161.917969 1147.464844 L 170.828125 1147.445312 C 170.984375 1147.445312 171.144531 1147.453125 171.300781 1147.445312 L 669.617188 1146.351562 C 676.59375 1150.019531 684.75 1144.089844 683.425781 1136.324219 L 637.070312 865.976562 C 636.546875 862.886719 637.5625 859.742188 639.804688 857.558594 Z M 836.21875 666.101562 " clip-rule="nonzero"/></clipPath><clipPath id="858246841f"><path d="M 0.734375 0.5 L 834.613281 0.5 L 834.613281 794.46875 L 0.734375 794.46875 Z M 0.734375 0.5 " clip-rule="nonzero"/></clipPath><clipPath id="5ca01e3769"><path d="M 831.21875 313.101562 C 836.863281 307.59375 833.753906 298.007812 825.945312 296.875 L 554.5 257.433594 C 551.402344 256.980469 548.722656 255.035156 547.335938 252.230469 L 425.953125 6.261719 C 422.464844 -0.8125 412.375 -0.8125 408.886719 6.261719 L 287.492188 252.230469 C 286.105469 255.035156 283.425781 256.980469 280.328125 257.433594 L 8.894531 296.875 C 1.09375 298.007812 -2.027344 307.59375 3.617188 313.101562 L 200.035156 504.558594 C 202.273438 506.742188 203.304688 509.894531 202.769531 512.976562 L 156.402344 783.316406 C 155.824219 786.667969 157.019531 789.660156 159.113281 791.710938 C 157.703125 793.476562 156.917969 794.464844 156.917969 794.464844 L 165.828125 794.445312 C 165.984375 794.445312 166.144531 794.453125 166.300781 794.445312 L 664.617188 793.351562 C 671.59375 797.019531 679.75 791.089844 678.425781 783.324219 L 632.070312 512.976562 C 631.546875 509.886719 632.5625 506.742188 634.804688 504.558594 Z M 831.21875 313.101562 " clip-rule="nonzero"/></clipPath><clipPath id="d18d43e072"><rect x="0" width="835" y="0" height="795"/></clipPath><clipPath id="a677b74b78"><path d="M 318.703125 640.210938 L 523 640.210938 L 523 845 L 318.703125 845 Z M 318.703125 640.210938 " clip-rule="nonzero"/></clipPath><clipPath id="621688f3ab"><path d="M 522.78125 742.300781 C 522.78125 798.601562 477.140625 844.242188 420.84375 844.242188 C 364.542969 844.242188 318.902344 798.601562 318.902344 742.300781 C 318.902344 686.003906 364.542969 640.363281 420.84375 640.363281 C 477.140625 640.363281 522.78125 686.003906 522.78125 742.300781 " clip-rule="nonzero"/></clipPath><clipPath id="1787bb53a1"><path d="M 0.859375 0.351562 L 204.832031 0.351562 L 204.832031 204.324219 L 0.859375 204.324219 Z M 0.859375 0.351562 " clip-rule="nonzero"/></clipPath><clipPath id="ee35cb1012"><path d="M 204.78125 102.300781 C 204.78125 158.601562 159.140625 204.242188 102.84375 204.242188 C 46.542969 204.242188 0.902344 158.601562 0.902344 102.300781 C 0.902344 46.003906 46.542969 0.363281 102.84375 0.363281 C 159.140625 0.363281 204.78125 46.003906 204.78125 102.300781 " clip-rule="nonzero"/></clipPath><clipPath id="b1945770a6"><rect x="0" width="205" y="0" height="205"/></clipPath><clipPath id="bf8ba4e3fd"><path d="M 255.6875 925 L 587 925 L 587 1090.753906 L 255.6875 1090.753906 Z M 255.6875 925 " clip-rule="nonzero"/></clipPath><clipPath id="30141e1d79"><path d="M 255.847656 1090.683594 C 255.847656 999.261719 329.957031 925.164062 421.367188 925.164062 C 512.777344 925.164062 586.890625 999.273438 586.890625 1090.683594 " clip-rule="nonzero"/></clipPath><clipPath id="79a0577dad"><path d="M 0.746094 0 L 331.902344 0 L 331.902344 165.753906 L 0.746094 165.753906 Z M 0.746094 0 " clip-rule="nonzero"/></clipPath><clipPath id="96511d1723"><path d="M 0.847656 165.683594 C 0.847656 74.261719 74.957031 0.164062 166.367188 0.164062 C 257.777344 0.164062 331.890625 74.273438 331.890625 165.683594 " clip-rule="nonzero"/></clipPath><clipPath id="0d3b0fb4d9"><rect x="0" width="332" y="0" height="166"/></clipPath><clipPath id="160ea55b42"><path d="M 447 234 L 932 234 L 932 549 L 447 549 Z M 447 234 " clip-rule="nonzero"/></clipPath><clipPath id="094080fa91"><path d="M 467.09375 250.984375 C 468.691406 250.4375 517.242188 234.128906 583.863281 234.128906 C 695.113281 234.128906 855.597656 280.496094 930.152344 510.449219 C 935.164062 525.90625 926.695312 542.5 911.234375 547.511719 C 895.777344 552.527344 879.183594 544.054688 874.167969 528.597656 C 809.222656 328.289062 675.734375 292.980469 583.863281 292.980469 C 524.609375 292.980469 484.191406 307.335938 485.988281 306.726562 C 470.59375 311.9375 453.894531 303.699219 448.671875 288.304688 C 443.449219 272.90625 451.699219 256.207031 467.09375 250.984375 Z M 467.09375 250.984375 " clip-rule="nonzero"/></clipPath><clipPath id="b133c6b5d6"><path d="M 0 0.0859375 L 485 0.0859375 L 485 315 L 0 315 Z M 0 0.0859375 " clip-rule="nonzero"/></clipPath><clipPath id="0ac822eb48"><path d="M 20.09375 16.984375 C 21.691406 16.4375 70.242188 0.128906 136.863281 0.128906 C 248.113281 0.128906 408.597656 46.496094 483.152344 276.449219 C 488.164062 291.90625 479.695312 308.5 464.234375 313.511719 C 448.777344 318.527344 432.183594 310.054688 427.167969 294.597656 C 362.222656 94.289062 228.734375 58.980469 136.863281 58.980469 C 77.609375 58.980469 37.191406 73.335938 38.988281 72.726562 C 23.59375 77.9375 6.894531 69.699219 1.671875 54.304688 C -3.550781 38.90625 4.699219 22.207031 20.09375 16.984375 Z M 20.09375 16.984375 " clip-rule="nonzero"/></clipPath><clipPath id="84ca2f95de"><rect x="0" width="485" y="0" height="315"/></clipPath><clipPath id="37cbec1e3f"><path d="M 391.167969 5.875 L 1153.628906 5.875 L 1153.628906 494 L 391.167969 494 Z M 391.167969 5.875 " clip-rule="nonzero"/></clipPath><clipPath id="214e9ad582"><path d="M 412.402344 26.726562 C 413.96875 26.253906 482.480469 5.878906 579.070312 5.878906 C 756.183594 5.878906 1028.265625 75.34375 1151.886719 454.695312 C 1156.921875 470.144531 1148.480469 486.757812 1133.023438 491.792969 C 1117.5625 496.828125 1100.957031 488.386719 1095.925781 472.929688 C 982.394531 124.515625 738.558594 64.730469 579.070312 64.730469 C 488.910156 64.730469 427.632812 83.605469 429.28125 83.109375 C 413.71875 87.777344 397.3125 78.925781 392.648438 63.363281 C 387.980469 47.800781 396.828125 31.394531 412.394531 26.726562 Z M 412.402344 26.726562 " clip-rule="nonzero"/></clipPath><clipPath id="50ffc9537a"><path d="M 0.167969 0.875 L 762.628906 0.875 L 762.628906 489 L 0.167969 489 Z M 0.167969 0.875 " clip-rule="nonzero"/></clipPath><clipPath id="5315b5f129"><path d="M 21.402344 21.726562 C 22.96875 21.253906 91.480469 0.878906 188.070312 0.878906 C 365.183594 0.878906 637.265625 70.34375 760.886719 449.695312 C 765.921875 465.144531 757.480469 481.757812 742.023438 486.792969 C 726.5625 491.828125 709.957031 483.386719 704.925781 467.929688 C 591.394531 119.515625 347.558594 59.730469 188.070312 59.730469 C 97.910156 59.730469 36.632812 78.605469 38.28125 78.109375 C 22.71875 82.777344 6.3125 73.925781 1.648438 58.363281 C -3.019531 42.800781 5.828125 26.394531 21.394531 21.726562 Z M 21.402344 21.726562 " clip-rule="nonzero"/></clipPath><clipPath id="97fee34420"><rect x="0" width="763" y="0" height="489"/></clipPath><clipPath id="8fe13e63f7"><path d="M 1385.390625 319.835938 L 1437.9375 319.835938 L 1437.9375 702 L 1385.390625 702 Z M 1385.390625 319.835938 " clip-rule="nonzero"/></clipPath><clipPath id="dc7a990061"><path d="M 1437.9375 677.347656 C 1437.9375 684.632812 1435.738281 690.539062 1431.367188 695.089844 C 1426.996094 699.640625 1421.289062 701.910156 1414.289062 701.910156 L 1409.035156 701.910156 C 1402.027344 701.910156 1396.332031 699.640625 1391.957031 695.089844 C 1387.585938 690.539062 1385.390625 684.632812 1385.390625 677.347656 L 1385.390625 344.394531 C 1385.390625 337.121094 1387.578125 331.214844 1391.957031 326.65625 C 1396.339844 322.09375 1402.027344 319.835938 1409.035156 319.835938 L 1414.289062 319.835938 C 1421.289062 319.835938 1426.984375 322.117188 1431.367188 326.65625 C 1435.75 331.195312 1437.9375 337.121094 1437.9375 344.394531 Z M 1437.9375 677.347656 " clip-rule="nonzero"/></clipPath><clipPath id="c2d4887c04"><path d="M 0.390625 0.835938 L 52.9375 0.835938 L 52.9375 383 L 0.390625 383 Z M 0.390625 0.835938 " clip-rule="nonzero"/></clipPath><clipPath id="06c62dffea"><path d="M 52.9375 358.347656 C 52.9375 365.632812 50.738281 371.539062 46.367188 376.089844 C 41.996094 380.640625 36.289062 382.910156 29.289062 382.910156 L 24.035156 382.910156 C 17.027344 382.910156 11.332031 380.640625 6.957031 376.089844 C 2.585938 371.539062 0.390625 365.632812 0.390625 358.347656 L 0.390625 25.394531 C 0.390625 18.121094 2.578125 12.214844 6.957031 7.65625 C 11.339844 3.09375 17.027344 0.835938 24.035156 0.835938 L 29.289062 0.835938 C 36.289062 0.835938 41.984375 3.117188 46.367188 7.65625 C 50.75 12.195312 52.9375 18.121094 52.9375 25.394531 Z M 52.9375 358.347656 " clip-rule="nonzero"/></clipPath><clipPath id="797c9d6f69"><rect x="0" width="53" y="0" height="383"/></clipPath><clipPath id="c10784e9b5"><path d="M 1510.488281 319.363281 L 1826 319.363281 L 1826 709 L 1510.488281 709 Z M 1510.488281 319.363281 " clip-rule="nonzero"/></clipPath><clipPath id="51bc46ed14"><path d="M 1608.761719 365.035156 L 1755.257812 586.71875 L 1755.257812 362.976562 C 1755.257812 348.441406 1758.378906 337.53125 1764.621094 330.261719 C 1770.867188 322.988281 1779.292969 319.363281 1789.898438 319.363281 C 1800.835938 319.363281 1809.488281 323 1815.8125 330.269531 C 1822.140625 337.542969 1825.304688 348.453125 1825.304688 362.984375 L 1825.304688 658.8125 C 1825.304688 691.820312 1811.621094 708.332031 1784.253906 708.332031 C 1777.414062 708.332031 1771.253906 707.34375 1765.777344 705.378906 C 1760.304688 703.410156 1755.175781 700.289062 1750.382812 696.011719 C 1745.589844 691.734375 1741.144531 686.734375 1737.035156 681.007812 C 1732.925781 675.277344 1728.828125 669.425781 1724.71875 663.433594 L 1581.816406 444.316406 L 1581.816406 664.707031 C 1581.816406 679.074219 1578.484375 689.9375 1571.808594 697.296875 C 1565.136719 704.652344 1556.582031 708.332031 1546.15625 708.332031 C 1535.386719 708.332031 1526.734375 704.609375 1520.242188 697.167969 C 1513.746094 689.730469 1510.488281 678.90625 1510.488281 664.707031 L 1510.488281 374.523438 C 1510.488281 362.207031 1511.855469 352.550781 1514.597656 345.53125 C 1517.84375 337.835938 1523.226562 331.554688 1530.761719 326.675781 C 1538.296875 321.800781 1546.410156 319.363281 1555.132812 319.363281 C 1561.972656 319.363281 1567.835938 320.476562 1572.703125 322.695312 C 1577.570312 324.910156 1581.847656 327.917969 1585.535156 331.667969 C 1589.222656 335.421875 1592.976562 340.308594 1596.820312 346.296875 C 1600.667969 352.289062 1604.652344 358.53125 1608.761719 365.035156 " clip-rule="nonzero"/></clipPath><clipPath id="7c001ff742"><path d="M 0.488281 0.363281 L 315.378906 0.363281 L 315.378906 389.503906 L 0.488281 389.503906 Z M 0.488281 0.363281 " clip-rule="nonzero"/></clipPath><clipPath id="7ec810cfde"><path d="M 98.761719 46.035156 L 245.257812 267.71875 L 245.257812 43.976562 C 245.257812 29.441406 248.378906 18.53125 254.621094 11.261719 C 260.867188 3.988281 269.292969 0.363281 279.898438 0.363281 C 290.835938 0.363281 299.488281 4 305.8125 11.269531 C 312.140625 18.542969 315.304688 29.453125 315.304688 43.984375 L 315.304688 339.8125 C 315.304688 372.820312 301.621094 389.332031 274.253906 389.332031 C 267.414062 389.332031 261.253906 388.34375 255.777344 386.378906 C 250.304688 384.410156 245.175781 381.289062 240.382812 377.011719 C 235.589844 372.734375 231.144531 367.734375 227.035156 362.007812 C 222.925781 356.277344 218.828125 350.425781 214.71875 344.433594 L 71.816406 125.316406 L 71.816406 345.707031 C 71.816406 360.074219 68.484375 370.9375 61.808594 378.296875 C 55.136719 385.652344 46.582031 389.332031 36.15625 389.332031 C 25.386719 389.332031 16.734375 385.609375 10.242188 378.167969 C 3.746094 370.730469 0.488281 359.90625 0.488281 345.707031 L 0.488281 55.523438 C 0.488281 43.207031 1.855469 33.550781 4.597656 26.53125 C 7.84375 18.835938 13.226562 12.554688 20.761719 7.675781 C 28.296875 2.800781 36.410156 0.363281 45.132812 0.363281 C 51.972656 0.363281 57.835938 1.476562 62.703125 3.695312 C 67.570312 5.910156 71.847656 8.917969 75.535156 12.667969 C 79.222656 16.421875 82.976562 21.308594 86.820312 27.296875 C 90.667969 33.289062 94.652344 39.53125 98.761719 46.035156 " clip-rule="nonzero"/></clipPath><clipPath id="071c650dda"><rect x="0" width="316" y="0" height="390"/></clipPath><clipPath id="302e8ea40b"><path d="M 1907.152344 325.777344 L 2169.371094 325.777344 L 2169.371094 708.863281 L 1907.152344 708.863281 Z M 1907.152344 325.777344 " clip-rule="nonzero"/></clipPath><clipPath id="65bcc11a3d"><path d="M 2133.445312 384.535156 L 1983.355469 384.535156 L 1983.355469 480.746094 L 2108.824219 480.746094 C 2120.457031 480.746094 2129.128906 483.351562 2134.867188 488.578125 C 2140.605469 493.800781 2143.460938 500.765625 2143.460938 509.488281 C 2143.460938 518.210938 2140.550781 525.136719 2134.738281 530.277344 C 2128.929688 535.414062 2120.277344 537.96875 2108.824219 537.96875 L 1983.355469 537.96875 L 1983.355469 661.882812 C 1983.355469 677.628906 1979.800781 689.292969 1972.707031 696.902344 C 1965.613281 704.511719 1956.503906 708.3125 1945.382812 708.3125 C 1934.097656 708.3125 1924.902344 704.46875 1917.808594 696.765625 C 1910.714844 689.0625 1907.152344 677.460938 1907.152344 661.882812 L 1907.152344 372.46875 C 1907.152344 361.53125 1908.78125 352.585938 1912.027344 345.660156 C 1915.273438 338.734375 1920.363281 333.691406 1927.296875 330.527344 C 1934.234375 327.363281 1943.070312 325.777344 1953.84375 325.777344 L 2133.445312 325.777344 C 2145.585938 325.777344 2154.613281 328.46875 2160.519531 333.859375 C 2166.425781 339.25 2169.367188 346.300781 2169.367188 355.023438 C 2169.367188 363.925781 2166.414062 371.0625 2160.519531 376.453125 C 2154.625 381.84375 2145.597656 384.535156 2133.445312 384.535156 " clip-rule="nonzero"/></clipPath><clipPath id="8a8374192e"><path d="M 0.152344 0.777344 L 262.371094 0.777344 L 262.371094 383 L 0.152344 383 Z M 0.152344 0.777344 " clip-rule="nonzero"/></clipPath><clipPath id="3ec1fd6d13"><path d="M 226.445312 59.535156 L 76.355469 59.535156 L 76.355469 155.746094 L 201.824219 155.746094 C 213.457031 155.746094 222.128906 158.351562 227.867188 163.578125 C 233.605469 168.800781 236.460938 175.765625 236.460938 184.488281 C 236.460938 193.210938 233.550781 200.136719 227.738281 205.277344 C 221.929688 210.414062 213.277344 212.96875 201.824219 212.96875 L 76.355469 212.96875 L 76.355469 336.882812 C 76.355469 352.628906 72.800781 364.292969 65.707031 371.902344 C 58.613281 379.511719 49.503906 383.3125 38.382812 383.3125 C 27.097656 383.3125 17.902344 379.46875 10.808594 371.765625 C 3.714844 364.0625 0.152344 352.460938 0.152344 336.882812 L 0.152344 47.46875 C 0.152344 36.53125 1.78125 27.585938 5.027344 20.660156 C 8.273438 13.734375 13.363281 8.691406 20.296875 5.527344 C 27.234375 2.363281 36.070312 0.777344 46.84375 0.777344 L 226.445312 0.777344 C 238.585938 0.777344 247.613281 3.46875 253.519531 8.859375 C 259.425781 14.25 262.367188 21.300781 262.367188 30.023438 C 262.367188 38.925781 259.414062 46.0625 253.519531 51.453125 C 247.625 56.84375 238.597656 59.535156 226.445312 59.535156 " clip-rule="nonzero"/></clipPath><clipPath id="7b43831dae"><rect x="0" width="263" y="0" height="384"/></clipPath><clipPath id="70064df163"><path d="M 2224.53125 319 L 2493.890625 319 L 2493.890625 701.914062 L 2224.53125 701.914062 Z M 2224.53125 319 " clip-rule="nonzero"/></clipPath><clipPath id="ff784ce8b5"><path d="M 2300.734375 365.539062 L 2300.734375 639.308594 L 2455.1875 639.308594 C 2467.503906 639.308594 2476.953125 642.300781 2483.542969 648.292969 C 2490.132812 654.28125 2493.421875 661.808594 2493.421875 670.867188 C 2493.421875 680.105469 2490.175781 687.585938 2483.667969 693.3125 C 2477.164062 699.042969 2467.675781 701.910156 2455.1875 701.910156 L 2271.222656 701.910156 C 2254.628906 701.910156 2242.703125 698.230469 2235.429688 690.875 C 2228.15625 683.519531 2224.53125 671.632812 2224.53125 655.21875 L 2224.53125 365.539062 C 2224.53125 350.15625 2228 338.605469 2234.925781 330.914062 C 2241.851562 323.21875 2250.960938 319.363281 2262.25 319.363281 C 2273.703125 319.363281 2282.984375 323.167969 2290.089844 330.777344 C 2297.191406 338.386719 2300.734375 349.988281 2300.734375 365.539062 " clip-rule="nonzero"/></clipPath><clipPath id="0084ddcb65"><path d="M 0.53125 0.277344 L 269.449219 0.277344 L 269.449219 382.914062 L 0.53125 382.914062 Z M 0.53125 0.277344 " clip-rule="nonzero"/></clipPath><clipPath id="79c3283323"><path d="M 76.734375 46.539062 L 76.734375 320.308594 L 231.1875 320.308594 C 243.503906 320.308594 252.953125 323.300781 259.542969 329.292969 C 266.132812 335.28125 269.421875 342.808594 269.421875 351.867188 C 269.421875 361.105469 266.175781 368.585938 259.667969 374.3125 C 253.164062 380.042969 243.675781 382.910156 231.1875 382.910156 L 47.222656 382.910156 C 30.628906 382.910156 18.703125 379.230469 11.429688 371.875 C 4.15625 364.519531 0.53125 352.632812 0.53125 336.21875 L 0.53125 46.539062 C 0.53125 31.15625 4 19.605469 10.925781 11.914062 C 17.851562 4.21875 26.960938 0.363281 38.25 0.363281 C 49.703125 0.363281 58.984375 4.167969 66.089844 11.777344 C 73.191406 19.386719 76.734375 30.988281 76.734375 46.539062 " clip-rule="nonzero"/></clipPath><clipPath id="dcce63f419"><rect x="0" width="270" y="0" height="383"/></clipPath><clipPath id="84a851ff3a"><path d="M 2517.796875 319 L 2834.148438 319 L 2834.148438 709 L 2517.796875 709 Z M 2517.796875 319 " clip-rule="nonzero"/></clipPath><clipPath id="c6e9c53166"><path d="M 2517.796875 546.425781 L 2517.796875 365.539062 C 2517.796875 350.15625 2521.265625 338.605469 2528.1875 330.914062 C 2535.113281 323.21875 2544.226562 319.363281 2555.511719 319.363281 C 2567.316406 319.363281 2576.679688 323.210938 2583.605469 330.914062 C 2590.53125 338.617188 2594 350.15625 2594 365.550781 L 2594 550.535156 C 2594 571.574219 2596.351562 589.144531 2601.050781 603.257812 C 2605.746094 617.375 2614.09375 628.324219 2626.0625 636.101562 C 2638.03125 643.878906 2654.792969 647.777344 2676.347656 647.777344 C 2706.109375 647.777344 2727.148438 639.863281 2739.46875 624.046875 C 2751.785156 608.230469 2757.941406 584.238281 2757.941406 552.078125 L 2757.941406 365.539062 C 2757.941406 349.976562 2761.359375 338.382812 2768.199219 330.777344 C 2775.039062 323.167969 2784.203125 319.363281 2795.660156 319.363281 C 2807.113281 319.363281 2816.394531 323.167969 2823.5 330.777344 C 2830.601562 338.382812 2834.144531 349.976562 2834.144531 365.539062 L 2834.144531 546.425781 C 2834.144531 575.851562 2831.277344 600.390625 2825.546875 620.0625 C 2819.820312 639.738281 2808.996094 657.015625 2793.097656 671.894531 C 2779.414062 684.558594 2763.5 693.796875 2745.375 699.609375 C 2727.246094 705.421875 2706.027344 708.332031 2681.738281 708.332031 C 2652.828125 708.332031 2627.941406 705.210938 2607.070312 698.96875 C 2586.199219 692.726562 2569.1875 683.054688 2556.019531 669.972656 C 2542.851562 656.886719 2533.179688 640.125 2527.023438 619.6875 C 2520.863281 599.246094 2517.796875 574.820312 2517.796875 546.425781 " clip-rule="nonzero"/></clipPath><clipPath id="a5fa1e7f6e"><path d="M 0.796875 0.277344 L 317.148438 0.277344 L 317.148438 389 L 0.796875 389 Z M 0.796875 0.277344 " clip-rule="nonzero"/></clipPath><clipPath id="fa241d7f2a"><path d="M 0.796875 227.425781 L 0.796875 46.539062 C 0.796875 31.15625 4.265625 19.605469 11.1875 11.914062 C 18.113281 4.21875 27.226562 0.363281 38.511719 0.363281 C 50.316406 0.363281 59.679688 4.210938 66.605469 11.914062 C 73.53125 19.617188 77 31.15625 77 46.550781 L 77 231.535156 C 77 252.574219 79.351562 270.144531 84.050781 284.257812 C 88.746094 298.375 97.09375 309.324219 109.0625 317.101562 C 121.03125 324.878906 137.792969 328.777344 159.347656 328.777344 C 189.109375 328.777344 210.148438 320.863281 222.46875 305.046875 C 234.785156 289.230469 240.941406 265.238281 240.941406 233.078125 L 240.941406 46.539062 C 240.941406 30.976562 244.359375 19.382812 251.199219 11.777344 C 258.039062 4.167969 267.203125 0.363281 278.660156 0.363281 C 290.113281 0.363281 299.394531 4.167969 306.5 11.777344 C 313.601562 19.382812 317.144531 30.976562 317.144531 46.539062 L 317.144531 227.425781 C 317.144531 256.851562 314.277344 281.390625 308.546875 301.0625 C 302.820312 320.738281 291.996094 338.015625 276.097656 352.894531 C 262.414062 365.558594 246.5 374.796875 228.375 380.609375 C 210.246094 386.421875 189.027344 389.332031 164.738281 389.332031 C 135.828125 389.332031 110.941406 386.210938 90.070312 379.96875 C 69.199219 373.726562 52.1875 364.054688 39.019531 350.972656 C 25.851562 337.886719 16.179688 321.125 10.023438 300.6875 C 3.863281 280.246094 0.796875 255.820312 0.796875 227.425781 " clip-rule="nonzero"/></clipPath><clipPath id="60d323d304"><rect x="0" width="318" y="0" height="390"/></clipPath><clipPath id="0316bc28cc"><path d="M 2916.511719 325.777344 L 3207 325.777344 L 3207 702 L 2916.511719 702 Z M 2916.511719 325.777344 " clip-rule="nonzero"/></clipPath><clipPath id="5b906e0d3e"><path d="M 3164.359375 384.535156 L 2992.714844 384.535156 L 2992.714844 476.898438 L 3150.761719 476.898438 C 3162.394531 476.898438 3171.066406 479.507812 3176.804688 484.730469 C 3182.542969 489.953125 3185.398438 496.835938 3185.398438 505.378906 C 3185.398438 513.925781 3182.574219 520.902344 3176.929688 526.292969 C 3171.285156 531.683594 3162.5625 534.375 3150.761719 534.375 L 2992.714844 534.375 L 2992.714844 641.359375 L 3170.265625 641.359375 C 3182.238281 641.359375 3191.265625 644.144531 3197.339844 649.691406 C 3203.414062 655.242188 3206.449219 662.652344 3206.449219 671.886719 C 3206.449219 680.78125 3203.414062 688.011719 3197.339844 693.570312 C 3191.265625 699.128906 3182.238281 701.914062 3170.265625 701.914062 L 2963.203125 701.914062 C 2946.609375 701.914062 2934.679688 698.234375 2927.410156 690.878906 C 2920.136719 683.523438 2916.511719 671.636719 2916.511719 655.222656 L 2916.511719 372.46875 C 2916.511719 361.53125 2918.140625 352.585938 2921.386719 345.660156 C 2924.632812 338.734375 2929.722656 333.691406 2936.65625 330.527344 C 2943.59375 327.363281 2952.429688 325.777344 2963.203125 325.777344 L 3164.359375 325.777344 C 3176.5 325.777344 3185.527344 328.46875 3191.433594 333.859375 C 3197.339844 339.25 3200.28125 346.300781 3200.28125 355.023438 C 3200.28125 363.925781 3197.328125 371.0625 3191.433594 376.453125 C 3185.535156 381.84375 3176.507812 384.535156 3164.359375 384.535156 " clip-rule="nonzero"/></clipPath><clipPath id="7f5087386c"><path d="M 0.511719 0.777344 L 290.636719 0.777344 L 290.636719 377 L 0.511719 377 Z M 0.511719 0.777344 " clip-rule="nonzero"/></clipPath><clipPath id="076971b3af"><path d="M 248.359375 59.535156 L 76.714844 59.535156 L 76.714844 151.898438 L 234.761719 151.898438 C 246.394531 151.898438 255.066406 154.507812 260.804688 159.730469 C 266.542969 164.953125 269.398438 171.835938 269.398438 180.378906 C 269.398438 188.925781 266.574219 195.902344 260.929688 201.292969 C 255.285156 206.683594 246.5625 209.375 234.761719 209.375 L 76.714844 209.375 L 76.714844 316.359375 L 254.265625 316.359375 C 266.238281 316.359375 275.265625 319.144531 281.339844 324.691406 C 287.414062 330.242188 290.449219 337.652344 290.449219 346.886719 C 290.449219 355.78125 287.414062 363.011719 281.339844 368.570312 C 275.265625 374.128906 266.238281 376.914062 254.265625 376.914062 L 47.203125 376.914062 C 30.609375 376.914062 18.679688 373.234375 11.410156 365.878906 C 4.136719 358.523438 0.511719 346.636719 0.511719 330.222656 L 0.511719 47.46875 C 0.511719 36.53125 2.140625 27.585938 5.386719 20.660156 C 8.632812 13.734375 13.722656 8.691406 20.65625 5.527344 C 27.59375 2.363281 36.429688 0.777344 47.203125 0.777344 L 248.359375 0.777344 C 260.5 0.777344 269.527344 3.46875 275.433594 8.859375 C 281.339844 14.25 284.28125 21.300781 284.28125 30.023438 C 284.28125 38.925781 281.328125 46.0625 275.433594 51.453125 C 269.535156 56.84375 260.507812 59.535156 248.359375 59.535156 " clip-rule="nonzero"/></clipPath><clipPath id="bef4f770a4"><rect x="0" width="291" y="0" height="377"/></clipPath><clipPath id="689dc053bc"><path d="M 3268.015625 319.363281 L 3583 319.363281 L 3583 709 L 3268.015625 709 Z M 3268.015625 319.363281 " clip-rule="nonzero"/></clipPath><clipPath id="0bffcec953"><path d="M 3366.289062 365.035156 L 3512.789062 586.71875 L 3512.789062 362.976562 C 3512.789062 348.441406 3515.910156 337.53125 3522.152344 330.261719 C 3528.394531 322.988281 3536.820312 319.363281 3547.425781 319.363281 C 3558.367188 319.363281 3567.015625 323 3573.339844 330.269531 C 3579.667969 337.542969 3582.832031 348.453125 3582.832031 362.984375 L 3582.832031 658.8125 C 3582.832031 691.820312 3569.148438 708.332031 3541.78125 708.332031 C 3534.941406 708.332031 3528.78125 707.34375 3523.308594 705.378906 C 3517.832031 703.410156 3512.703125 700.289062 3507.910156 696.011719 C 3503.117188 691.734375 3498.671875 686.734375 3494.5625 681.007812 C 3490.457031 675.277344 3486.355469 669.425781 3482.246094 663.433594 L 3339.34375 444.316406 L 3339.34375 664.707031 C 3339.34375 679.074219 3336.011719 689.9375 3329.339844 697.296875 C 3322.664062 704.652344 3314.109375 708.332031 3303.683594 708.332031 C 3292.914062 708.332031 3284.273438 704.609375 3277.769531 697.167969 C 3271.265625 689.730469 3268.015625 678.90625 3268.015625 664.707031 L 3268.015625 374.523438 C 3268.015625 362.207031 3269.382812 352.550781 3272.125 345.53125 C 3275.375 337.835938 3280.753906 331.554688 3288.289062 326.675781 C 3295.824219 321.800781 3303.9375 319.363281 3312.660156 319.363281 C 3319.5 319.363281 3325.367188 320.476562 3330.230469 322.695312 C 3335.097656 324.910156 3339.386719 327.917969 3343.0625 331.667969 C 3346.742188 335.421875 3350.503906 340.308594 3354.351562 346.296875 C 3358.195312 352.289062 3362.179688 358.53125 3366.289062 365.035156 " clip-rule="nonzero"/></clipPath><clipPath id="8c7459ecb2"><path d="M 0.015625 0.363281 L 314.90625 0.363281 L 314.90625 389.503906 L 0.015625 389.503906 Z M 0.015625 0.363281 " clip-rule="nonzero"/></clipPath><clipPath id="446c8672d8"><path d="M 98.289062 46.035156 L 244.789062 267.71875 L 244.789062 43.976562 C 244.789062 29.441406 247.910156 18.53125 254.152344 11.261719 C 260.394531 3.988281 268.820312 0.363281 279.425781 0.363281 C 290.367188 0.363281 299.015625 4 305.339844 11.269531 C 311.667969 18.542969 314.832031 29.453125 314.832031 43.984375 L 314.832031 339.8125 C 314.832031 372.820312 301.148438 389.332031 273.78125 389.332031 C 266.941406 389.332031 260.78125 388.34375 255.308594 386.378906 C 249.832031 384.410156 244.703125 381.289062 239.910156 377.011719 C 235.117188 372.734375 230.671875 367.734375 226.5625 362.007812 C 222.457031 356.277344 218.355469 350.425781 214.246094 344.433594 L 71.34375 125.316406 L 71.34375 345.707031 C 71.34375 360.074219 68.011719 370.9375 61.339844 378.296875 C 54.664062 385.652344 46.109375 389.332031 35.683594 389.332031 C 24.914062 389.332031 16.273438 385.609375 9.769531 378.167969 C 3.265625 370.730469 0.015625 359.90625 0.015625 345.707031 L 0.015625 55.523438 C 0.015625 43.207031 1.382812 33.550781 4.125 26.53125 C 7.375 18.835938 12.753906 12.554688 20.289062 7.675781 C 27.824219 2.800781 35.9375 0.363281 44.660156 0.363281 C 51.5 0.363281 57.367188 1.476562 62.230469 3.695312 C 67.097656 5.910156 71.386719 8.917969 75.0625 12.667969 C 78.742188 16.421875 82.503906 21.308594 86.351562 27.296875 C 90.195312 33.289062 94.179688 39.53125 98.289062 46.035156 " clip-rule="nonzero"/></clipPath><clipPath id="05e7784f46"><rect x="0" width="315" y="0" height="390"/></clipPath><clipPath id="c63088c031"><path d="M 3651.335938 319.363281 L 3987 319.363281 L 3987 709 L 3651.335938 709 Z M 3651.335938 319.363281 " clip-rule="nonzero"/></clipPath><clipPath id="26093d304c"><path d="M 3986.675781 583.125 C 3986.675781 595.105469 3983.722656 608.050781 3977.828125 621.996094 C 3971.933594 635.941406 3962.640625 649.625 3949.988281 663.046875 C 3937.335938 676.464844 3921.160156 687.375 3901.5 695.761719 C 3881.835938 704.148438 3858.90625 708.332031 3832.738281 708.332031 C 3812.894531 708.332031 3794.851562 706.449219 3778.605469 702.6875 C 3762.355469 698.925781 3747.601562 693.0625 3734.351562 685.117188 C 3721.097656 677.171875 3708.90625 666.683594 3697.789062 653.683594 C 3687.867188 641.878906 3679.398438 628.671875 3672.386719 614.042969 C 3665.378906 599.414062 3660.101562 583.804688 3656.601562 567.210938 C 3653.101562 550.617188 3651.335938 533.003906 3651.335938 514.363281 C 3651.335938 484.085938 3655.742188 456.980469 3664.546875 433.03125 C 3673.355469 409.078125 3685.976562 388.597656 3702.390625 371.570312 C 3718.804688 354.546875 3738.058594 341.601562 3760.128906 332.710938 C 3782.199219 323.816406 3805.707031 319.363281 3830.6875 319.363281 C 3861.132812 319.363281 3888.246094 325.4375 3912.019531 337.574219 C 3935.789062 349.714844 3954.003906 364.730469 3966.667969 382.605469 C 3979.332031 400.484375 3985.65625 417.371094 3985.65625 433.28125 C 3985.65625 442.003906 3982.578125 449.699219 3976.417969 456.371094 C 3970.261719 463.042969 3962.820312 466.375 3954.097656 466.375 C 3944.34375 466.375 3937.042969 464.0625 3932.164062 459.449219 C 3927.289062 454.835938 3921.855469 446.882812 3915.875 435.59375 C 3905.957031 416.949219 3894.28125 403.003906 3880.859375 393.769531 C 3867.4375 384.53125 3850.875 379.917969 3831.214844 379.917969 C 3799.917969 379.917969 3774.980469 391.800781 3756.417969 415.585938 C 3737.859375 439.367188 3728.582031 473.144531 3728.582031 516.9375 C 3728.582031 546.183594 3732.6875 570.523438 3740.898438 589.933594 C 3749.105469 609.34375 3760.738281 623.847656 3775.789062 633.421875 C 3790.835938 642.996094 3808.460938 647.785156 3828.640625 647.785156 C 3850.53125 647.785156 3869.046875 642.363281 3884.191406 631.496094 C 3899.335938 620.628906 3910.746094 604.6875 3918.441406 583.648438 C 3921.6875 573.726562 3925.710938 565.644531 3930.496094 559.402344 C 3935.277344 553.160156 3942.980469 550.039062 3953.582031 550.039062 C 3962.640625 550.039062 3970.429688 553.203125 3976.933594 559.53125 C 3983.441406 565.855469 3986.6875 573.726562 3986.6875 583.132812 " clip-rule="nonzero"/></clipPath><clipPath id="f2278338dd"><path d="M 0.335938 0.363281 L 335.773438 0.363281 L 335.773438 389.503906 L 0.335938 389.503906 Z M 0.335938 0.363281 " clip-rule="nonzero"/></clipPath><clipPath id="d52d914792"><path d="M 335.675781 264.125 C 335.675781 276.105469 332.722656 289.050781 326.828125 302.996094 C 320.933594 316.941406 311.640625 330.625 298.988281 344.046875 C 286.335938 357.464844 270.160156 368.375 250.5 376.761719 C 230.835938 385.148438 207.90625 389.332031 181.738281 389.332031 C 161.894531 389.332031 143.851562 387.449219 127.605469 383.6875 C 111.355469 379.925781 96.601562 374.0625 83.351562 366.117188 C 70.097656 358.171875 57.90625 347.683594 46.789062 334.683594 C 36.867188 322.878906 28.398438 309.671875 21.386719 295.042969 C 14.378906 280.414062 9.101562 264.804688 5.601562 248.210938 C 2.101562 231.617188 0.335938 214.003906 0.335938 195.363281 C 0.335938 165.085938 4.742188 137.980469 13.546875 114.03125 C 22.355469 90.078125 34.976562 69.597656 51.390625 52.570312 C 67.804688 35.546875 87.058594 22.601562 109.128906 13.710938 C 131.199219 4.816406 154.707031 0.363281 179.6875 0.363281 C 210.132812 0.363281 237.246094 6.4375 261.019531 18.574219 C 284.789062 30.714844 303.003906 45.730469 315.667969 63.605469 C 328.332031 81.484375 334.65625 98.371094 334.65625 114.28125 C 334.65625 123.003906 331.578125 130.699219 325.417969 137.371094 C 319.261719 144.042969 311.820312 147.375 303.097656 147.375 C 293.34375 147.375 286.042969 145.0625 281.164062 140.449219 C 276.289062 135.835938 270.855469 127.882812 264.875 116.59375 C 254.957031 97.949219 243.28125 84.003906 229.859375 74.769531 C 216.4375 65.53125 199.875 60.917969 180.214844 60.917969 C 148.917969 60.917969 123.980469 72.800781 105.417969 96.585938 C 86.859375 120.367188 77.582031 154.144531 77.582031 197.9375 C 77.582031 227.183594 81.6875 251.523438 89.898438 270.933594 C 98.105469 290.34375 109.738281 304.847656 124.789062 314.421875 C 139.835938 323.996094 157.460938 328.785156 177.640625 328.785156 C 199.53125 328.785156 218.046875 323.363281 233.191406 312.496094 C 248.335938 301.628906 259.746094 285.6875 267.441406 264.648438 C 270.6875 254.726562 274.710938 246.644531 279.496094 240.402344 C 284.277344 234.160156 291.980469 231.039062 302.582031 231.039062 C 311.640625 231.039062 319.429688 234.203125 325.933594 240.53125 C 332.441406 246.855469 335.6875 254.726562 335.6875 264.132812 " clip-rule="nonzero"/></clipPath><clipPath id="b91cf39f4d"><rect x="0" width="336" y="0" height="390"/></clipPath><clipPath id="fd2cdb8c36"><path d="M 4055.183594 325.777344 L 4346 325.777344 L 4346 702 L 4055.183594 702 Z M 4055.183594 325.777344 " clip-rule="nonzero"/></clipPath><clipPath id="76db1d3b60"><path d="M 4303.035156 384.535156 L 4131.386719 384.535156 L 4131.386719 476.898438 L 4289.433594 476.898438 C 4301.070312 476.898438 4309.75 479.507812 4315.476562 484.730469 C 4321.203125 489.953125 4324.074219 496.835938 4324.074219 505.378906 C 4324.074219 513.925781 4321.246094 520.902344 4315.601562 526.292969 C 4309.960938 531.683594 4301.238281 534.375 4289.433594 534.375 L 4131.386719 534.375 L 4131.386719 641.359375 L 4308.941406 641.359375 C 4320.910156 641.359375 4329.9375 644.144531 4336.011719 649.691406 C 4342.085938 655.242188 4345.125 662.652344 4345.125 671.886719 C 4345.125 680.78125 4342.085938 688.011719 4336.011719 693.570312 C 4329.9375 699.128906 4320.910156 701.914062 4308.941406 701.914062 L 4101.875 701.914062 C 4085.28125 701.914062 4073.355469 698.234375 4066.082031 690.878906 C 4058.808594 683.523438 4055.183594 671.636719 4055.183594 655.222656 L 4055.183594 372.46875 C 4055.183594 361.53125 4056.8125 352.585938 4060.058594 345.660156 C 4063.308594 338.734375 4068.394531 333.691406 4075.332031 330.527344 C 4082.265625 327.363281 4091.105469 325.777344 4101.875 325.777344 L 4303.035156 325.777344 C 4315.183594 325.777344 4324.199219 328.46875 4330.105469 333.859375 C 4336.011719 339.25 4338.953125 346.300781 4338.953125 355.023438 C 4338.953125 363.925781 4336 371.0625 4330.105469 376.453125 C 4324.210938 381.84375 4315.183594 384.535156 4303.035156 384.535156 " clip-rule="nonzero"/></clipPath><clipPath id="250ae7d565"><path d="M 0.183594 0.777344 L 290.285156 0.777344 L 290.285156 377 L 0.183594 377 Z M 0.183594 0.777344 " clip-rule="nonzero"/></clipPath><clipPath id="87208565ce"><path d="M 248.035156 59.535156 L 76.386719 59.535156 L 76.386719 151.898438 L 234.433594 151.898438 C 246.070312 151.898438 254.75 154.507812 260.476562 159.730469 C 266.203125 164.953125 269.074219 171.835938 269.074219 180.378906 C 269.074219 188.925781 266.246094 195.902344 260.601562 201.292969 C 254.960938 206.683594 246.238281 209.375 234.433594 209.375 L 76.386719 209.375 L 76.386719 316.359375 L 253.941406 316.359375 C 265.910156 316.359375 274.9375 319.144531 281.011719 324.691406 C 287.085938 330.242188 290.125 337.652344 290.125 346.886719 C 290.125 355.78125 287.085938 363.011719 281.011719 368.570312 C 274.9375 374.128906 265.910156 376.914062 253.941406 376.914062 L 46.875 376.914062 C 30.28125 376.914062 18.355469 373.234375 11.082031 365.878906 C 3.808594 358.523438 0.183594 346.636719 0.183594 330.222656 L 0.183594 47.46875 C 0.183594 36.53125 1.8125 27.585938 5.058594 20.660156 C 8.308594 13.734375 13.394531 8.691406 20.332031 5.527344 C 27.265625 2.363281 36.105469 0.777344 46.875 0.777344 L 248.035156 0.777344 C 260.183594 0.777344 269.199219 3.46875 275.105469 8.859375 C 281.011719 14.25 283.953125 21.300781 283.953125 30.023438 C 283.953125 38.925781 281 46.0625 275.105469 51.453125 C 269.210938 56.84375 260.183594 59.535156 248.035156 59.535156 " clip-rule="nonzero"/></clipPath><clipPath id="ac77c9b514"><rect x="0" width="291" y="0" height="377"/></clipPath><clipPath id="c18a750297"><path d="M 4405.148438 325.777344 L 4718.527344 325.777344 L 4718.527344 708.328125 L 4405.148438 708.328125 Z M 4405.148438 325.777344 " clip-rule="nonzero"/></clipPath><clipPath id="27fec31b62"><path d="M 4551.648438 382.988281 L 4481.351562 382.988281 L 4481.351562 486.390625 L 4549.597656 486.390625 C 4567.894531 486.390625 4583.292969 484.8125 4595.789062 481.640625 C 4608.28125 478.464844 4617.804688 473.085938 4624.394531 465.476562 C 4630.984375 457.867188 4634.273438 447.390625 4634.273438 434.042969 C 4634.273438 423.609375 4631.625 414.410156 4626.316406 406.46875 C 4621.007812 398.523438 4613.652344 392.574219 4604.246094 388.632812 C 4595.355469 384.871094 4577.816406 382.988281 4551.648438 382.988281 M 4508.035156 541.039062 L 4481.351562 541.039062 L 4481.351562 661.882812 C 4481.351562 677.792969 4477.84375 689.511719 4470.832031 697.035156 C 4463.824219 704.5625 4454.667969 708.324219 4443.382812 708.324219 C 4431.234375 708.324219 4421.828125 704.382812 4415.15625 696.523438 C 4408.480469 688.660156 4405.148438 677.109375 4405.148438 661.882812 L 4405.148438 372.46875 C 4405.148438 356.054688 4408.828125 344.167969 4416.183594 336.8125 C 4423.542969 329.457031 4435.425781 325.777344 4451.84375 325.777344 L 4575.769531 325.777344 C 4592.867188 325.777344 4607.496094 326.503906 4619.644531 327.953125 C 4631.792969 329.402344 4642.730469 332.355469 4652.484375 336.800781 C 4664.285156 341.761719 4674.722656 348.855469 4683.792969 358.09375 C 4692.863281 367.332031 4699.746094 378.070312 4704.441406 390.292969 C 4709.140625 402.515625 4711.492188 415.484375 4711.492188 429.167969 C 4711.492188 457.226562 4703.582031 479.632812 4687.765625 496.394531 C 4671.949219 513.15625 4647.957031 525.042969 4615.796875 532.0625 C 4629.3125 539.25 4642.226562 549.855469 4654.535156 563.875 C 4666.839844 577.894531 4677.84375 592.828125 4687.5 608.644531 C 4697.160156 624.460938 4704.695312 638.753906 4710.074219 651.488281 C 4715.457031 664.226562 4718.15625 673.003906 4718.15625 677.785156 C 4718.15625 682.746094 4716.570312 687.664062 4713.40625 692.539062 C 4710.242188 697.414062 4705.925781 701.261719 4700.449219 704.089844 C 4694.972656 706.914062 4688.648438 708.324219 4681.457031 708.324219 C 4672.902344 708.324219 4665.714844 706.316406 4659.90625 702.292969 C 4654.09375 698.265625 4649.078125 693.179688 4644.898438 687.019531 C 4640.714844 680.863281 4635.019531 671.804688 4627.832031 659.824219 L 4597.300781 609.023438 C 4586.351562 590.378906 4576.554688 576.179688 4567.929688 566.429688 C 4559.300781 556.675781 4550.523438 550.011719 4541.632812 546.417969 C 4532.742188 542.824219 4521.527344 541.027344 4508.023438 541.027344 " clip-rule="nonzero"/></clipPath><clipPath id="375f1c56f1"><path d="M 0.148438 0.777344 L 313.195312 0.777344 L 313.195312 383.328125 L 0.148438 383.328125 Z M 0.148438 0.777344 " clip-rule="nonzero"/></clipPath><clipPath id="b90b262af0"><path d="M 146.648438 57.988281 L 76.351562 57.988281 L 76.351562 161.390625 L 144.597656 161.390625 C 162.894531 161.390625 178.292969 159.8125 190.789062 156.640625 C 203.28125 153.464844 212.804688 148.085938 219.394531 140.476562 C 225.984375 132.867188 229.273438 122.390625 229.273438 109.042969 C 229.273438 98.609375 226.625 89.410156 221.316406 81.46875 C 216.007812 73.523438 208.652344 67.574219 199.246094 63.632812 C 190.355469 59.871094 172.816406 57.988281 146.648438 57.988281 M 103.035156 216.039062 L 76.351562 216.039062 L 76.351562 336.882812 C 76.351562 352.792969 72.84375 364.511719 65.832031 372.035156 C 58.824219 379.5625 49.667969 383.324219 38.382812 383.324219 C 26.234375 383.324219 16.828125 379.382812 10.15625 371.523438 C 3.480469 363.660156 0.148438 352.109375 0.148438 336.882812 L 0.148438 47.46875 C 0.148438 31.054688 3.828125 19.167969 11.183594 11.8125 C 18.542969 4.457031 30.425781 0.777344 46.84375 0.777344 L 170.769531 0.777344 C 187.867188 0.777344 202.496094 1.503906 214.644531 2.953125 C 226.792969 4.402344 237.730469 7.355469 247.484375 11.800781 C 259.285156 16.761719 269.722656 23.855469 278.792969 33.09375 C 287.863281 42.332031 294.746094 53.070312 299.441406 65.292969 C 304.140625 77.515625 306.492188 90.484375 306.492188 104.167969 C 306.492188 132.226562 298.582031 154.632812 282.765625 171.394531 C 266.949219 188.15625 242.957031 200.042969 210.796875 207.0625 C 224.3125 214.25 237.226562 224.855469 249.535156 238.875 C 261.839844 252.894531 272.84375 267.828125 282.5 283.644531 C 292.160156 299.460938 299.695312 313.753906 305.074219 326.488281 C 310.457031 339.226562 313.15625 348.003906 313.15625 352.785156 C 313.15625 357.746094 311.570312 362.664062 308.40625 367.539062 C 305.242188 372.414062 300.925781 376.261719 295.449219 379.089844 C 289.972656 381.914062 283.648438 383.324219 276.457031 383.324219 C 267.902344 383.324219 260.714844 381.316406 254.90625 377.292969 C 249.09375 373.265625 244.078125 368.179688 239.898438 362.019531 C 235.714844 355.863281 230.019531 346.804688 222.832031 334.824219 L 192.300781 284.023438 C 181.351562 265.378906 171.554688 251.179688 162.929688 241.429688 C 154.300781 231.675781 145.523438 225.011719 136.632812 221.417969 C 127.742188 217.824219 116.527344 216.027344 103.023438 216.027344 " clip-rule="nonzero"/></clipPath><clipPath id="2c7539042c"><rect x="0" width="314" y="0" height="384"/></clipPath><clipPath id="50649465d5"><path d="M 4702.835938 100.71875 L 4848.914062 100.71875 L 4848.914062 246.796875 L 4702.835938 246.796875 Z M 4702.835938 100.71875 " clip-rule="nonzero"/></clipPath><clipPath id="babf4103bb"><path d="M 4848.914062 173.757812 C 4848.914062 214.089844 4816.210938 246.796875 4775.875 246.796875 L 4775.875 243.117188 L 4775.875 246.796875 C 4735.542969 246.796875 4702.835938 214.089844 4702.835938 173.757812 L 4706.515625 173.757812 L 4702.835938 173.757812 C 4702.835938 133.421875 4735.542969 100.71875 4775.875 100.71875 L 4775.875 104.394531 L 4775.875 100.71875 C 4816.210938 100.71875 4848.914062 133.421875 4848.914062 173.757812 L 4845.238281 173.757812 L 4848.914062 173.757812 M 4841.558594 173.757812 C 4841.558594 137.480469 4812.152344 108.074219 4775.875 108.074219 C 4739.597656 108.074219 4710.191406 137.480469 4710.191406 173.757812 C 4710.191406 210.035156 4739.597656 239.441406 4775.875 239.441406 C 4812.152344 239.441406 4841.558594 210.035156 4841.558594 173.757812 Z M 4841.558594 173.757812 " clip-rule="nonzero"/></clipPath><clipPath id="f0a48dca92"><path d="M 0.835938 0.71875 L 146.914062 0.71875 L 146.914062 146.796875 L 0.835938 146.796875 Z M 0.835938 0.71875 " clip-rule="nonzero"/></clipPath><clipPath id="f79d289945"><path d="M 146.914062 73.757812 C 146.914062 114.089844 114.210938 146.796875 73.875 146.796875 L 73.875 143.117188 L 73.875 146.796875 C 33.542969 146.796875 0.835938 114.089844 0.835938 73.757812 L 4.515625 73.757812 L 0.835938 73.757812 C 0.835938 33.421875 33.542969 0.71875 73.875 0.71875 L 73.875 4.394531 L 73.875 0.71875 C 114.210938 0.71875 146.914062 33.421875 146.914062 73.757812 L 143.238281 73.757812 L 146.914062 73.757812 M 139.558594 73.757812 C 139.558594 37.480469 110.152344 8.074219 73.875 8.074219 C 37.597656 8.074219 8.191406 37.480469 8.191406 73.757812 C 8.191406 110.035156 37.597656 139.441406 73.875 139.441406 C 110.152344 139.441406 139.558594 110.035156 139.558594 73.757812 Z M 139.558594 73.757812 " clip-rule="nonzero"/></clipPath><clipPath id="3f586e90ef"><rect x="0" width="147" y="0" height="147"/></clipPath><clipPath id="2fa3a9c4e1"><path d="M 2196 850 L 3916 850 L 3916 1191.800781 L 2196 1191.800781 Z M 2196 850 " clip-rule="nonzero"/></clipPath><clipPath id="a66b6b3bbc"><rect x="0" width="1720" y="0" height="342"/></clipPath><clipPath id="98b23cd5ac"><rect x="0" width="69" y="0" height="158"/></clipPath><clipPath id="4b7a99818f"><rect x="0" width="4849" y="0" height="1192"/></clipPath></defs><g transform="matrix(1, 0, 0, 1, 456, 263)"><g clip-path="url(#4b7a99818f)"><g clip-path="url(#ee56b71be9)"><g clip-path="url(#e22417c6da)"><g transform="matrix(1, 0, 0, 1, 5, 353)"><g clip-path="url(#d18d43e072)"><g clip-path="url(#858246841f)"><g clip-path="url(#5ca01e3769)"><rect x="-2524.607" width="9796.464" fill="#f10702" y="-1235.163975" height="2939.327882" fill-opacity="1"/></g></g></g></g></g></g><g clip-path="url(#a677b74b78)"><g clip-path="url(#621688f3ab)"><g transform="matrix(1, 0, 0, 1, 318, 640)"><g clip-path="url(#b1945770a6)"><g clip-path="url(#1787bb53a1)"><g clip-path="url(#ee35cb1012)"><rect x="-2837.607" width="9796.464" fill="#f7f7f7" y="-1522.163975" height="2939.327882" fill-opacity="1"/></g></g></g></g></g></g><g clip-path="url(#bf8ba4e3fd)"><g clip-path="url(#30141e1d79)"><g transform="matrix(1, 0, 0, 1, 255, 925)"><g clip-path="url(#0d3b0fb4d9)"><g clip-path="url(#79a0577dad)"><g clip-path="url(#96511d1723)"><rect x="-2774.607" width="9796.464" fill="#f7f7f7" y="-1807.163975" height="2939.327882" fill-opacity="1"/></g></g></g></g></g></g><g clip-path="url(#160ea55b42)"><g clip-path="url(#094080fa91)"><g transform="matrix(1, 0, 0, 1, 447, 234)"><g clip-path="url(#84ca2f95de)"><g clip-path="url(#b133c6b5d6)"><g clip-path="url(#0ac822eb48)"><rect x="-2966.607" width="9796.464" fill="#f10702" y="-1116.163975" height="2939.327882" fill-opacity="1"/></g></g></g></g></g></g><g clip-path="url(#37cbec1e3f)"><g clip-path="url(#214e9ad582)"><g transform="matrix(1, 0, 0, 1, 391, 5)"><g clip-path="url(#97fee34420)"><g clip-path="url(#50ffc9537a)"><g clip-path="url(#5315b5f129)"><rect x="-2910.607" width="9796.464" fill="#f10702" y="-887.163975" height="2939.327882" fill-opacity="1"/></g></g></g></g></g></g><g clip-path="url(#8fe13e63f7)"><g clip-path="url(#dc7a990061)"><g transform="matrix(1, 0, 0, 1, 1385, 319)"><g clip-path="url(#797c9d6f69)"><g clip-path="url(#c2d4887c04)"><g clip-path="url(#06c62dffea)"><path fill="#000000" d="M 0.390625 0.835938 L 52.9375 0.835938 L 52.9375 382.820312 L 0.390625 382.820312 Z M 0.390625 0.835938 " fill-opacity="1" fill-rule="nonzero"/></g></g></g></g></g></g><g clip-path="url(#c10784e9b5)"><g clip-path="url(#51bc46ed14)"><g transform="matrix(1, 0, 0, 1, 1510, 319)"><g clip-path="url(#071c650dda)"><g clip-path="url(#7c001ff742)"><g clip-path="url(#7ec810cfde)"><path fill="#000000" d="M 0.488281 0.363281 L 315.015625 0.363281 L 315.015625 389.328125 L 0.488281 389.328125 Z M 0.488281 0.363281 " fill-opacity="1" fill-rule="nonzero"/></g></g></g></g></g></g><g clip-path="url(#302e8ea40b)"><g clip-path="url(#65bcc11a3d)"><g transform="matrix(1, 0, 0, 1, 1907, 325)"><g clip-path="url(#7b43831dae)"><g clip-path="url(#8a8374192e)"><g clip-path="url(#3ec1fd6d13)"><path fill="#000000" d="M 0.152344 0.777344 L 262.371094 0.777344 L 262.371094 382.839844 L 0.152344 382.839844 Z M 0.152344 0.777344 " fill-opacity="1" fill-rule="nonzero"/></g></g></g></g></g></g><g clip-path="url(#70064df163)"><g clip-path="url(#ff784ce8b5)"><g transform="matrix(1, 0, 0, 1, 2224, 319)"><g clip-path="url(#dcce63f419)"><g clip-path="url(#0084ddcb65)"><g clip-path="url(#79c3283323)"><path fill="#000000" d="M 0.53125 0.363281 L 269.890625 0.363281 L 269.890625 382.914062 L 0.53125 382.914062 Z M 0.53125 0.363281 " fill-opacity="1" fill-rule="nonzero"/></g></g></g></g></g></g><g clip-path="url(#84a851ff3a)"><g clip-path="url(#c6e9c53166)"><g transform="matrix(1, 0, 0, 1, 2517, 319)"><g clip-path="url(#60d323d304)"><g clip-path="url(#a5fa1e7f6e)"><g clip-path="url(#fa241d7f2a)"><path fill="#000000" d="M 0.796875 0.363281 L 317.148438 0.363281 L 317.148438 388.996094 L 0.796875 388.996094 Z M 0.796875 0.363281 " fill-opacity="1" fill-rule="nonzero"/></g></g></g></g></g></g><g clip-path="url(#0316bc28cc)"><g clip-path="url(#5b906e0d3e)"><g transform="matrix(1, 0, 0, 1, 2916, 325)"><g clip-path="url(#bef4f770a4)"><g clip-path="url(#7f5087386c)"><g clip-path="url(#076971b3af)"><path fill="#000000" d="M 0.511719 0.777344 L 290.4375 0.777344 L 290.4375 376.84375 L 0.511719 376.84375 Z M 0.511719 0.777344 " fill-opacity="1" fill-rule="nonzero"/></g></g></g></g></g></g><g clip-path="url(#689dc053bc)"><g clip-path="url(#0bffcec953)"><g transform="matrix(1, 0, 0, 1, 3268, 319)"><g clip-path="url(#05e7784f46)"><g clip-path="url(#8c7459ecb2)"><g clip-path="url(#446c8672d8)"><path fill="#000000" d="M 0.015625 0.363281 L 314.542969 0.363281 L 314.542969 389.328125 L 0.015625 389.328125 Z M 0.015625 0.363281 " fill-opacity="1" fill-rule="nonzero"/></g></g></g></g></g></g><g clip-path="url(#c63088c031)"><g clip-path="url(#26093d304c)"><g transform="matrix(1, 0, 0, 1, 3651, 319)"><g clip-path="url(#b91cf39f4d)"><g clip-path="url(#f2278338dd)"><g clip-path="url(#d52d914792)"><path fill="#000000" d="M 0.335938 0.363281 L 335.679688 0.363281 L 335.679688 389.148438 L 0.335938 389.148438 Z M 0.335938 0.363281 " fill-opacity="1" fill-rule="nonzero"/></g></g></g></g></g></g><g clip-path="url(#fd2cdb8c36)"><g clip-path="url(#76db1d3b60)"><g transform="matrix(1, 0, 0, 1, 4055, 325)"><g clip-path="url(#ac77c9b514)"><g clip-path="url(#250ae7d565)"><g clip-path="url(#87208565ce)"><path fill="#000000" d="M 0.183594 0.777344 L 290.113281 0.777344 L 290.113281 376.84375 L 0.183594 376.84375 Z M 0.183594 0.777344 " fill-opacity="1" fill-rule="nonzero"/></g></g></g></g></g></g><g clip-path="url(#c18a750297)"><g clip-path="url(#27fec31b62)"><g transform="matrix(1, 0, 0, 1, 4405, 325)"><g clip-path="url(#2c7539042c)"><g clip-path="url(#375f1c56f1)"><g clip-path="url(#b90b262af0)"><path fill="#000000" d="M 0.148438 0.777344 L 313.527344 0.777344 L 313.527344 383.328125 L 0.148438 383.328125 Z M 0.148438 0.777344 " fill-opacity="1" fill-rule="nonzero"/></g></g></g></g></g></g><g clip-path="url(#50649465d5)"><g clip-path="url(#babf4103bb)"><g transform="matrix(1, 0, 0, 1, 4702, 100)"><g clip-path="url(#3f586e90ef)"><g clip-path="url(#f0a48dca92)"><g clip-path="url(#f79d289945)"><path fill="#000000" d="M 0.835938 0.71875 L 146.914062 0.71875 L 146.914062 146.796875 L 0.835938 146.796875 Z M 0.835938 0.71875 " fill-opacity="1" fill-rule="nonzero"/></g></g></g></g></g></g><g clip-path="url(#2fa3a9c4e1)"><g transform="matrix(1, 0, 0, 1, 2196, 850)"><g clip-path="url(#a66b6b3bbc)"><g fill="#000000" fill-opacity="1"><g transform="translate(0.704581, 255.73395)"><g><path d="M 123.375 -169.9375 L 123.375 -151.890625 L 77.046875 -151.890625 L 77.046875 0 L 54.859375 0 L 54.859375 -151.890625 L 8.296875 -151.890625 L 8.296875 -169.9375 Z M 123.375 -169.9375 "/></g></g></g><g fill="#000000" fill-opacity="1"><g transform="translate(246.955502, 255.73395)"><g><path d="M 40.46875 -169.9375 L 40.46875 -62.421875 C 40.46875 -47.296875 44.164062 -36.078125 51.5625 -28.765625 C 58.957031 -21.453125 69.238281 -17.796875 82.40625 -17.796875 C 95.40625 -17.796875 105.601562 -21.453125 113 -28.765625 C 120.394531 -36.078125 124.09375 -47.296875 124.09375 -62.421875 L 124.09375 -169.9375 L 146.28125 -169.9375 L 146.28125 -62.65625 C 146.28125 -48.519531 143.4375 -36.613281 137.75 -26.9375 C 132.0625 -17.269531 124.378906 -10.078125 114.703125 -5.359375 C 105.035156 -0.648438 94.191406 1.703125 82.171875 1.703125 C 70.140625 1.703125 59.285156 -0.648438 49.609375 -5.359375 C 39.941406 -10.078125 32.300781 -17.269531 26.6875 -26.9375 C 21.082031 -36.613281 18.28125 -48.519531 18.28125 -62.65625 L 18.28125 -169.9375 Z M 62.65625 -187.015625 C 59.082031 -187.015625 56.035156 -188.234375 53.515625 -190.671875 C 50.992188 -193.109375 49.734375 -196.113281 49.734375 -199.6875 C 49.734375 -203.257812 50.992188 -206.304688 53.515625 -208.828125 C 56.035156 -211.347656 59.082031 -212.609375 62.65625 -212.609375 C 66.070312 -212.609375 69.035156 -211.347656 71.546875 -208.828125 C 74.066406 -206.304688 75.328125 -203.257812 75.328125 -199.6875 C 75.328125 -196.113281 74.066406 -193.109375 71.546875 -190.671875 C 69.035156 -188.234375 66.070312 -187.015625 62.65625 -187.015625 Z M 102.15625 -187.015625 C 98.570312 -187.015625 95.5625 -188.234375 93.125 -190.671875 C 90.6875 -193.109375 89.46875 -196.113281 89.46875 -199.6875 C 89.46875 -203.257812 90.6875 -206.304688 93.125 -208.828125 C 95.5625 -211.347656 98.570312 -212.609375 102.15625 -212.609375 C 105.726562 -212.609375 108.773438 -211.347656 111.296875 -208.828125 C 113.816406 -206.304688 115.078125 -203.257812 115.078125 -199.6875 C 115.078125 -196.113281 113.816406 -193.109375 111.296875 -190.671875 C 108.773438 -188.234375 105.726562 -187.015625 102.15625 -187.015625 Z M 102.15625 -187.015625 "/></g></g></g><g fill="#000000" fill-opacity="1"><g transform="translate(525.877148, 255.73395)"><g><path d="M 108.25 0 L 67.78125 -69.484375 L 40.953125 -69.484375 L 40.953125 0 L 18.78125 0 L 18.78125 -169.9375 L 73.625 -169.9375 C 86.46875 -169.9375 97.316406 -167.738281 106.171875 -163.34375 C 115.035156 -158.957031 121.660156 -153.023438 126.046875 -145.546875 C 130.441406 -138.078125 132.640625 -129.546875 132.640625 -119.953125 C 132.640625 -108.253906 129.265625 -97.929688 122.515625 -88.984375 C 115.765625 -80.046875 105.644531 -74.113281 92.15625 -71.1875 L 134.828125 0 Z M 40.953125 -87.28125 L 73.625 -87.28125 C 85.65625 -87.28125 94.675781 -90.242188 100.6875 -96.171875 C 106.707031 -102.109375 109.71875 -110.035156 109.71875 -119.953125 C 109.71875 -130.035156 106.75 -137.835938 100.8125 -143.359375 C 94.882812 -148.890625 85.820312 -151.65625 73.625 -151.65625 L 40.953125 -151.65625 Z M 40.953125 -87.28125 "/></g></g></g><g fill="#000000" fill-opacity="1"><g transform="translate(788.463412, 255.73395)"><g><path d="M 110.9375 0 L 40.953125 -77.53125 L 40.953125 0 L 18.78125 0 L 18.78125 -169.9375 L 40.953125 -169.9375 L 40.953125 -91.1875 L 111.171875 -169.9375 L 139.21875 -169.9375 L 62.171875 -84.84375 L 139.953125 0 Z M 110.9375 0 "/></g></g></g><g fill="#000000" fill-opacity="1"><g transform="translate(1048.855439, 255.73395)"><g><path d="M 40.953125 -169.9375 L 40.953125 0 L 18.78125 0 L 18.78125 -169.9375 Z M 40.953125 -169.9375 "/></g></g></g><g fill="#000000" fill-opacity="1"><g transform="translate(1223.181967, 255.73395)"><g><path d="M 137.75 -169.9375 L 82.40625 -64.125 L 82.40625 0 L 60.21875 0 L 60.21875 -64.125 L 4.625 -169.9375 L 29.25 -169.9375 L 71.1875 -83.875 L 113.125 -169.9375 Z M 137.75 -169.9375 "/></g></g></g><g fill="#000000" fill-opacity="1"><g transform="translate(1479.916666, 255.73395)"><g><path d="M 40.953125 -151.890625 L 40.953125 -95.09375 L 102.890625 -95.09375 L 102.890625 -76.796875 L 40.953125 -76.796875 L 40.953125 -18.28125 L 110.203125 -18.28125 L 110.203125 0 L 18.78125 0 L 18.78125 -170.1875 L 110.203125 -170.1875 L 110.203125 -151.890625 Z M 40.953125 -151.890625 "/></g></g></g></g></g></g><g transform="matrix(1, 0, 0, 1, 4739, 94)"><g clip-path="url(#98b23cd5ac)"><g fill="#000000" fill-opacity="1"><g transform="translate(0.623222, 113.578844)"><g><path d="M 8.5 0 L 8.5 -71.9375 L 34.421875 -71.9375 C 39.503906 -71.9375 44.140625 -71.253906 48.328125 -69.890625 C 52.523438 -68.535156 55.875 -66.222656 58.375 -62.953125 C 60.875 -59.679688 62.125 -55.210938 62.125 -49.546875 C 62.125 -44.023438 60.875 -39.535156 58.375 -36.078125 C 55.875 -32.617188 52.523438 -30.0625 48.328125 -28.40625 C 44.140625 -26.757812 39.503906 -25.9375 34.421875 -25.9375 L 24.71875 -25.9375 L 24.71875 0 Z M 24.71875 -38.84375 L 33.109375 -38.84375 C 37.367188 -38.84375 40.617188 -39.742188 42.859375 -41.546875 C 45.109375 -43.347656 46.234375 -46.015625 46.234375 -49.546875 C 46.234375 -53.078125 45.109375 -55.539062 42.859375 -56.9375 C 40.617188 -58.332031 37.367188 -59.03125 33.109375 -59.03125 L 24.71875 -59.03125 Z M 47.453125 0 L 31.453125 -30.125 L 42.703125 -40.609375 L 65.65625 0 Z M 47.453125 0 "/></g></g></g></g></g></g></g></svg>